<svg xmlns="http://www.w3.org/2000/svg" version="1.0" width="3263.000000pt" height="2061.000000pt" viewBox="0 0 3263.000000 2061.000000" preserveAspectRatio="xMidYMid meet">

<g transform="translate(0.000000,2061.000000) scale(0.100000,-0.100000)" fill="#005f9d" stroke="none">
<path d="M13515 14183 c-125 -17 -269 -64 -530 -171 -377 -155 -858 -262 -1179 -262 l-98 0 6 -32 c20 -104 136 -245 279 -341 226 -151 498 -247 942 -332 439 -84 681 -161 1240 -392 373 -155 576 -219 831 -262 123 -20 318 -39 458 -44 l79 -2 66 -96 c104 -151 173 -235 365 -442 l110 -118 12 -337 c6 -185 15 -431 19 -546 l7 -209 -129 6 c-248 12 -508 70 -603 135 -101 69 -142 182 -110 302 27 103 233 249 255 181 8 -27 80 -90 124 -108 20 -9 63 -15 96 -15 167 -1 287 158 241 317 -41 138 -191 218 -325 170 -50 -17 -103 -56 -120 -88 -10 -19 -27 -26 -79 -36 -140 -26 -243 -81 -329 -175 -58 -63 -85 -114 -108 -201 -37 -144 3 -324 96 -429 82 -93 256 -193 391 -223 43 -10 77 -21 76 -25 -2 -3 -31 -27 -65 -51 -77 -57 -158 -154 -195 -234 -90 -192 -8 -428 203 -580 87 -64 167 -100 316 -142 76 -21 177 -51 224 -65 l87 -27 7 -247 c4 -136 8 -274 9 -306 l1 -59 -100 -29 c-291 -84 -405 -197 -392 -386 4 -58 11 -82 32 -112 49 -70 161 -156 436 -333 l57 -36 7 -198 c5 -109 9 -258 9 -331 l1 -134 -36 -21 -37 -21 -38 33 c-137 121 -333 88 -419 -69 -108 -202 86 -441 306 -377 114 34 192 137 191 256 -1 63 7 80 34 81 8 0 14 -77 19 -255 8 -274 12 -293 57 -282 24 6 25 11 31 104 4 54 7 137 7 184 0 47 3 139 6 205 l7 119 88 60 c113 75 160 122 221 214 83 127 105 256 59 353 -27 56 -116 142 -246 238 l-91 68 4 144 c2 78 7 176 10 217 l7 74 226 76 c134 45 247 90 279 110 73 45 161 137 191 197 49 102 33 240 -40 342 -61 83 -313 228 -501 287 -131 42 -129 40 -125 72 2 15 9 190 16 388 6 198 13 362 14 363 2 2 68 12 147 22 434 56 760 182 882 341 78 102 116 300 83 440 -31 130 -148 280 -263 334 -45 22 -78 29 -141 33 l-82 4 -53 53 c-77 74 -162 93 -263 58 -212 -72 -216 -382 -6 -470 97 -41 233 -3 293 81 28 41 33 43 60 35 122 -35 220 -157 222 -279 1 -49 -4 -65 -29 -101 -44 -63 -139 -123 -252 -159 -120 -38 -243 -57 -440 -66 l-153 -7 5 64 c3 35 10 213 15 394 6 182 13 390 16 464 l7 134 128 136 c155 165 302 339 364 432 33 49 53 69 68 70 500 18 834 90 1277 275 643 268 864 339 1335 429 571 110 930 268 1117 493 46 56 98 156 98 189 0 23 -2 23 -103 23 -320 0 -785 104 -1170 261 -332 136 -451 168 -648 176 -107 5 -153 2 -215 -11 -169 -37 -296 -128 -365 -261 -60 -116 -67 -171 -54 -417 8 -136 8 -137 -19 -192 -35 -72 -132 -160 -227 -208 -191 -96 -501 -167 -834 -192 l-80 -7 -22 48 c-32 69 -109 160 -172 203 -60 42 -129 66 -212 76 -108 12 -308 -46 -425 -126 l-46 -31 -37 24 c-206 136 -438 170 -600 87 -58 -29 -156 -124 -198 -191 -23 -38 -42 -59 -55 -59 -10 0 -85 7 -166 15 -506 53 -831 173 -957 355 -39 56 -56 143 -44 223 14 97 11 245 -6 312 -50 192 -196 327 -400 370 -65 14 -265 18 -340 8z m2631 -4281 c7 -185 10 -339 8 -341 -10 -10 -150 36 -242 80 -82 40 -117 64 -171 117 -71 70 -111 133 -111 177 0 88 99 189 242 246 58 23 250 69 258 62 3 -3 10 -156 16 -341z m417 -732 c137 -63 191 -102 218 -157 40 -83 8 -136 -116 -194 -61 -29 -235 -82 -242 -75 -2 2 -1 110 3 240 5 161 11 236 18 236 6 0 59 -23 119 -50z m-363 -857 c0 -38 3 -92 6 -120 8 -63 -1 -67 -63 -26 -54 35 -81 82 -67 120 10 29 86 93 110 93 11 0 14 -16 14 -67z m230 -678 c69 -100 63 -227 -15 -312 l-44 -48 -1 60 c0 119 13 345 21 345 4 0 22 -20 39 -45z" fill="#005f9d"/>
<path d="M11535 13599 c-22 -6 -148 -30 -280 -54 -611 -112 -1345 -212 -1935 -264 -563 -50 -692 -56 -1302 -56 l-586 0 16 -29 c28 -47 152 -165 227 -216 207 -140 490 -232 830 -272 140 -16 567 -16 750 0 595 54 1231 178 1915 375 222 64 664 208 701 228 18 9 15 13 -28 48 -66 52 -166 161 -194 210 -25 45 -37 48 -114 30z" fill="#005f9d"/>
<path d="M20971 13539 c-27 -49 -172 -203 -213 -227 -15 -9 -28 -19 -28 -23 0 -10 496 -173 745 -244 1246 -357 2351 -473 2965 -312 353 93 627 256 734 438 l18 31 -63 -7 c-117 -14 -909 -8 -1209 9 -868 50 -1805 167 -2723 341 -102 19 -190 35 -194 35 -4 0 -19 -19 -32 -41z" fill="#005f9d"/>
<path d="M11775 13249 c-160 -57 -663 -216 -900 -284 -789 -227 -1535 -392 -2206 -489 -249 -36 -605 -76 -681 -76 l-42 0 35 -36 c69 -71 247 -174 396 -227 228 -82 420 -111 733 -111 257 -1 398 13 665 64 462 88 1089 289 1595 510 52 23 127 55 165 72 93 40 650 316 748 371 l78 43 -73 29 c-91 35 -237 107 -306 151 -29 19 -56 34 -60 33 -4 0 -70 -23 -147 -50z" fill="#005f9d"/>
<path d="M20650 13244 c-41 -30 -241 -131 -322 -163 -32 -13 -56 -27 -53 -31 14 -23 552 -294 830 -417 741 -330 1412 -536 2035 -623 128 -18 473 -24 605 -11 313 32 593 119 779 244 63 42 136 105 136 116 0 4 -19 8 -42 9 -155 8 -595 62 -878 108 -835 135 -1826 385 -2753 694 -165 55 -300 100 -300 100 -1 -1 -18 -12 -37 -26z" fill="#005f9d"/>
<path d="M12315 13003 c-418 -249 -1026 -560 -1505 -770 -571 -250 -1111 -442 -1627 -578 -100 -27 -180 -52 -177 -57 9 -15 156 -80 259 -115 404 -137 924 -122 1435 43 700 225 1589 751 2320 1372 l34 29 -49 7 c-117 17 -349 68 -457 101 -64 19 -118 35 -120 34 -2 0 -52 -30 -113 -66z" fill="#005f9d"/>
<path d="M20120 13019 c-80 -29 -309 -84 -432 -104 -60 -10 -108 -21 -108 -25 0 -4 57 -54 128 -112 805 -658 1699 -1157 2387 -1333 267 -68 361 -80 645 -80 265 1 368 13 565 70 99 29 264 98 297 124 20 17 17 18 -93 45 -460 114 -1046 317 -1584 548 -568 245 -1233 583 -1673 850 -34 21 -66 38 -70 37 -4 0 -32 -9 -62 -20z" fill="#005f9d"/>
<path d="M12980 12795 c-172 -191 -492 -479 -726 -655 -353 -265 -743 -483 -1096 -615 -27 -10 -48 -19 -48 -21 0 -2 21 -13 48 -25 363 -164 797 -195 1133 -81 434 148 878 564 1211 1135 97 165 127 235 107 248 -42 27 -445 138 -505 139 -6 0 -62 -56 -124 -125z" fill="#005f9d"/>
<path d="M19460 12878 c-237 -50 -460 -119 -460 -141 0 -34 133 -273 233 -422 329 -487 710 -816 1098 -949 148 -50 228 -61 449 -61 228 0 286 9 490 72 109 33 240 86 240 97 0 2 -17 10 -37 17 -78 25 -342 142 -453 201 -480 255 -987 646 -1363 1053 -71 77 -135 141 -141 142 -6 0 -31 -3 -56 -9z" fill="#005f9d"/>
<path d="M13659 12732 c-94 -248 -162 -383 -307 -600 -195 -292 -460 -541 -739 -693 -35 -19 -63 -37 -63 -40 0 -3 48 -22 108 -42 420 -142 785 -122 1018 54 229 173 403 485 478 859 14 69 27 157 28 195 l3 70 -150 75 c-82 42 -199 92 -258 112 l-108 37 -10 -27z" fill="#005f9d"/>
<path d="M18840 12691 c-103 -38 -190 -76 -290 -126 -133 -68 -125 -55 -111 -171 44 -357 171 -661 373 -892 253 -290 637 -348 1151 -175 59 20 107 39 107 43 0 3 -21 16 -47 29 -198 95 -465 324 -646 551 -146 183 -311 471 -388 677 -39 107 -36 106 -149 64z" fill="#005f9d"/>
<path d="M14238 12358 c-15 -364 -175 -723 -408 -917 -33 -27 -56 -52 -52 -54 22 -14 250 -31 397 -30 349 1 513 69 596 247 89 192 100 456 28 697 l-11 35 -137 38 c-75 22 -193 56 -262 77 -70 22 -131 39 -136 39 -6 0 -12 -56 -15 -132z" fill="#005f9d"/>
<path d="M18305 12444 c-47 -18 -396 -119 -441 -129 -28 -5 -33 -12 -47 -63 -47 -172 -55 -396 -18 -537 28 -104 79 -212 122 -253 128 -124 421 -167 827 -121 l103 12 -83 77 c-231 215 -369 535 -385 893 -7 153 -4 148 -78 121z" fill="#005f9d"/>
<path d="M14880 12243 c79 -217 79 -442 0 -610 -28 -61 -28 -62 -8 -69 36 -11 219 7 314 31 156 40 253 105 309 206 27 50 29 63 36 209 4 85 11 174 14 196 l7 41 -118 7 c-230 14 -443 37 -556 62 l-27 6 29 -79z" fill="#005f9d"/>
<path d="M17680 12274 c-86 -18 -313 -41 -478 -50 l-134 -7 7 -45 c4 -25 10 -113 14 -196 7 -134 11 -157 33 -201 72 -140 253 -226 509 -242 145 -8 145 -8 109 69 -78 168 -78 395 -1 608 19 50 25 80 18 79 -7 -1 -41 -7 -77 -15z" fill="#005f9d"/>
<path d="M11450 9315 l0 -1485 190 0 190 0 2 902 3 902 86 -119 c47 -66 160 -223 251 -350 90 -126 258 -360 373 -520 115 -159 235 -327 267 -372 33 -46 60 -83 61 -83 4 0 167 231 887 1254 l165 235 3 -925 2 -924 195 0 195 0 0 1485 c0 817 -2 1485 -4 1485 -3 0 -423 -582 -486 -673 -29 -43 -343 -483 -380 -532 -49 -67 -371 -518 -479 -672 -47 -67 -90 -121 -95 -119 -10 2 -80 100 -901 1269 -280 400 -513 727 -517 727 -5 0 -8 -668 -8 -1485z" fill="#005f9d"/>
<path d="M8330 10734 c-272 -50 -444 -113 -623 -228 -302 -194 -527 -536 -608 -926 -26 -122 -37 -449 -20 -572 46 -323 167 -573 381 -788 402 -404 1057 -528 1683 -319 122 41 272 110 327 151 l30 22 0 583 0 583 -480 0 -480 0 0 -185 0 -185 285 0 285 0 -2 -287 -3 -288 -80 -32 c-138 -55 -225 -68 -450 -68 -183 0 -209 3 -305 27 -181 46 -302 104 -437 210 -270 213 -404 589 -353 995 71 565 493 923 1090 926 186 1 376 -41 595 -132 55 -22 100 -39 101 -38 4 3 124 343 124 349 0 13 -176 91 -288 128 -181 60 -264 72 -522 75 -124 2 -236 1 -250 -1z" fill="#005f9d"/>
<path d="M21140 10724 c-81 -10 -238 -48 -314 -75 -508 -187 -871 -622 -968 -1159 -19 -107 -16 -391 5 -507 105 -574 570 -1051 1140 -1167 172 -36 419 -38 587 -6 164 31 350 104 496 195 350 218 593 565 673 960 98 483 -51 967 -409 1325 -211 212 -454 347 -735 410 -78 18 -138 23 -270 25 -93 2 -186 1 -205 -1z m333 -379 c168 -25 349 -100 474 -196 217 -168 376 -430 424 -699 19 -108 16 -316 -5 -420 -61 -290 -234 -545 -479 -705 -218 -141 -495 -196 -760 -150 -246 43 -482 186 -649 394 -337 420 -308 1067 66 1459 242 254 581 370 929 317z" fill="#005f9d"/>
<path d="M24505 10724 c-199 -30 -326 -69 -475 -144 -386 -194 -641 -533 -743 -988 -18 -85 -21 -128 -22 -342 0 -203 3 -260 19 -330 64 -293 187 -523 385 -720 201 -200 431 -322 731 -387 121 -26 498 -26 615 0 136 30 256 72 381 135 177 90 168 60 75 255 -45 92 -83 167 -85 167 -2 0 -34 -18 -70 -40 -213 -130 -395 -176 -651 -167 -155 6 -251 24 -365 69 -417 165 -661 579 -637 1082 7 149 28 252 76 372 73 181 213 365 358 472 362 265 801 267 1211 6 47 -30 53 -32 59 -17 3 10 37 90 74 179 38 88 69 165 69 170 0 14 -212 115 -323 153 -157 55 -262 72 -467 76 -102 2 -198 1 -215 -1z" fill="#005f9d"/>
<path d="M18420 10714 c-255 -27 -445 -109 -591 -254 -118 -119 -182 -255 -202 -433 -12 -107 -1 -222 30 -313 78 -230 322 -418 733 -565 52 -18 156 -64 230 -100 241 -120 337 -235 348 -417 9 -170 -35 -274 -158 -373 -60 -48 -112 -74 -207 -101 -110 -32 -310 -32 -436 0 -133 33 -284 96 -403 168 -60 35 -111 61 -114 57 -15 -18 -160 -282 -160 -291 0 -25 277 -169 421 -220 247 -87 575 -110 804 -57 219 50 412 177 521 340 95 142 134 276 134 464 0 295 -106 497 -345 656 -108 72 -175 104 -407 196 -309 123 -412 180 -506 283 -64 70 -85 125 -86 221 0 52 6 99 18 133 25 74 108 161 189 200 104 49 149 57 307 56 193 -1 290 -24 543 -131 59 -25 109 -44 111 -42 9 9 147 291 144 294 -44 35 -235 118 -378 163 -143 45 -416 79 -540 66z" fill="#005f9d"/>
<path d="M10240 9270 l0 -1440 195 0 195 0 0 1440 0 1440 -195 0 -195 0 0 -1440z" fill="#005f9d"/>
<path d="M19181 7093 c1 -71 -3 -126 -7 -124 -106 50 -176 33 -220 -51 -28 -55 -8 -138 44 -178 33 -27 106 -27 150 0 17 11 33 18 33 15 1 -3 2 -11 3 -17 0 -7 13 -14 29 -16 l27 -3 0 250 0 251 -31 0 -30 0 2 -127z m-23 -163 c16 -16 22 -32 22 -66 0 -59 -12 -80 -56 -94 -66 -22 -124 21 -124 93 0 54 35 87 93 87 30 0 50 -6 65 -20z" fill="#005f9d"/>
<path d="M20194 7207 c-2 -7 -3 -118 -2 -247 l3 -235 28 -3 27 -3 0 250 0 251 -25 0 c-14 0 -28 -6 -31 -13z" fill="#005f9d"/>
<path d="M21750 7091 l0 -129 -37 20 c-66 34 -143 11 -183 -55 -35 -57 -18 -144 38 -187 34 -28 114 -27 153 1 l29 20 0 -20 c0 -17 6 -21 30 -21 l30 0 0 250 0 250 -30 0 -30 0 0 -129z m-22 -161 c16 -16 22 -32 22 -66 0 -60 -13 -81 -59 -95 -68 -20 -121 24 -121 102 0 69 105 108 158 59z" fill="#005f9d"/>
<path d="M14030 6960 l0 -250 30 0 30 0 0 250 0 250 -30 0 -30 0 0 -250z" fill="#005f9d"/>
<path d="M7675 7183 c-122 -28 -190 -101 -202 -218 -11 -102 41 -194 132 -236 69 -32 200 -22 248 19 14 12 17 32 17 104 l0 88 -80 0 -80 0 0 -30 c0 -29 1 -30 48 -30 l47 0 -3 -50 c-5 -59 -16 -65 -111 -58 -70 5 -116 34 -142 92 -35 76 -14 177 45 224 43 33 121 45 181 28 52 -16 65 -11 65 26 0 25 -113 54 -165 41z" fill="#005f9d"/>
<path d="M18030 6957 l0 -237 30 0 30 0 0 151 0 151 83 -116 c45 -63 84 -116 87 -116 3 0 41 52 85 115 44 63 83 114 88 115 4 0 7 -68 7 -151 l0 -150 28 3 27 3 3 233 c1 127 -1 232 -5 232 -5 -1 -57 -71 -117 -156 -60 -85 -113 -153 -117 -152 -4 2 -53 68 -109 148 -56 80 -106 149 -111 155 -5 5 -9 -88 -9 -228z" fill="#005f9d"/>
<path d="M20644 7180 c-40 -16 -74 -68 -74 -114 0 -54 40 -96 122 -126 90 -33 121 -89 79 -141 -16 -20 -28 -24 -78 -24 -35 0 -71 7 -91 17 -30 16 -33 16 -42 -2 -14 -26 -15 -26 35 -49 91 -43 202 -20 237 50 43 83 13 141 -99 193 -84 40 -103 57 -103 93 0 56 78 81 155 49 32 -14 36 -13 45 4 14 26 14 26 -30 44 -43 17 -121 20 -156 6z" fill="#005f9d"/>
<path d="M23144 7180 c-38 -15 -74 -68 -74 -109 0 -54 31 -88 116 -127 39 -18 79 -43 88 -55 58 -83 -47 -149 -157 -101 l-47 21 -11 -21 c-14 -25 4 -42 61 -58 123 -34 230 23 230 122 0 57 -35 95 -130 142 -78 38 -85 44 -88 73 -6 65 60 91 151 59 34 -13 38 -12 47 4 14 26 14 26 -30 44 -43 17 -121 20 -156 6z" fill="#005f9d"/>
<path d="M10420 6945 l0 -235 30 0 30 0 0 235 0 235 -30 0 -30 0 0 -235z" fill="#005f9d"/>
<path d="M19360 7106 c-26 -33 12 -60 50 -36 12 7 12 13 4 27 -15 24 -38 27 -54 9z" fill="#005f9d"/>
<path d="M24112 7108 c-19 -19 -14 -37 14 -44 33 -8 53 10 38 34 -14 22 -36 26 -52 10z" fill="#005f9d"/>
<path d="M9300 7095 c-18 -21 -5 -45 25 -45 14 0 28 7 31 15 7 17 -12 45 -31 45 -7 0 -18 -7 -25 -15z" fill="#005f9d"/>
<path d="M12770 7095 c-16 -19 -6 -45 18 -45 29 0 48 26 32 45 -16 19 -34 19 -50 0z" fill="#005f9d"/>
<path d="M20970 7050 c0 -57 -1 -60 -25 -60 -20 0 -25 -5 -25 -25 0 -20 5 -25 25 -25 l25 0 0 -110 0 -110 30 0 30 0 0 110 0 110 35 0 c31 0 35 3 35 25 0 22 -4 25 -35 25 l-35 0 0 60 0 60 -30 0 -30 0 0 -60z" fill="#005f9d"/>
<path d="M22650 7050 c0 -57 -1 -60 -25 -60 -20 0 -25 -5 -25 -25 0 -20 5 -25 25 -25 l25 0 0 -110 0 -110 30 0 30 0 0 110 0 110 35 0 c31 0 35 3 35 25 0 22 -4 25 -35 25 l-35 0 0 60 0 60 -30 0 -30 0 0 -60z" fill="#005f9d"/>
<path d="M24630 7050 c0 -57 -1 -60 -25 -60 -20 0 -25 -5 -25 -25 0 -20 5 -25 25 -25 l25 0 0 -110 0 -110 30 0 30 0 0 110 0 110 35 0 c31 0 35 3 35 25 0 22 -4 25 -35 25 l-35 0 0 60 0 60 -30 0 -30 0 0 -60z" fill="#005f9d"/>
<path d="M10990 7040 c0 -57 -1 -60 -25 -60 -20 0 -25 -5 -25 -26 0 -20 4 -25 23 -22 22 3 22 1 25 -109 l3 -113 29 0 30 0 0 113 0 113 35 -4 c32 -4 35 -2 35 22 0 23 -4 26 -35 26 l-35 0 0 60 0 60 -30 0 -30 0 0 -60z" fill="#005f9d"/>
<path d="M12560 7040 c0 -58 -1 -60 -26 -60 -21 0 -25 -4 -22 -22 2 -15 11 -24 26 -26 21 -3 22 -7 22 -113 l0 -109 30 0 30 0 0 113 0 113 35 -4 c32 -4 35 -2 35 22 0 23 -4 26 -35 26 l-35 0 0 60 0 60 -30 0 -30 0 0 -60z" fill="#005f9d"/>
<path d="M18674 6975 c-127 -76 -79 -255 68 -255 26 0 58 5 71 11 21 9 23 14 14 33 -10 21 -13 22 -39 8 -34 -16 -79 -9 -103 18 -20 22 -32 16 113 65 45 16 82 33 82 39 0 23 -40 76 -69 91 -43 22 -90 18 -137 -10z m130 -44 c18 -20 14 -41 -8 -41 -7 0 -40 -11 -74 -24 l-62 -25 0 28 c0 16 9 40 21 55 26 33 96 37 123 7z" fill="#005f9d"/>
<path d="M19860 6978 c-102 -69 -85 -226 28 -258 37 -10 113 9 120 30 6 18 22 11 22 -10 0 -16 7 -20 30 -20 l30 0 0 136 0 135 -27 -3 c-16 -2 -29 -9 -29 -15 -1 -7 -2 -16 -3 -20 0 -3 -12 4 -25 16 -37 35 -102 39 -146 9z m144 -49 c21 -16 26 -29 26 -64 0 -58 -7 -73 -42 -91 -66 -34 -138 12 -138 88 0 78 90 117 154 67z" fill="#005f9d"/>
<path d="M21974 6975 c-126 -75 -77 -257 70 -257 24 0 56 6 70 14 23 12 25 16 14 31 -11 14 -19 15 -49 7 -40 -11 -76 -2 -98 24 -15 18 -24 13 117 61 45 16 82 33 82 39 0 23 -40 76 -69 91 -43 22 -90 18 -137 -10z m131 -45 c10 -11 16 -22 14 -24 -2 -3 -39 -18 -82 -34 l-77 -30 0 28 c0 15 9 39 21 54 27 34 96 37 124 6z" fill="#005f9d"/>
<path d="M22375 6984 c-16 -8 -34 -23 -39 -32 -9 -15 -11 -14 -16 8 -4 18 -13 25 -30 25 l-25 0 0 -130 0 -130 26 -3 27 -3 3 91 c4 86 6 93 32 116 32 28 69 31 91 8 12 -12 16 -38 16 -115 l0 -100 28 3 27 3 3 108 c3 108 3 108 -27 137 -34 34 -70 38 -116 14z" fill="#005f9d"/>
<path d="M23516 6990 c-80 -24 -118 -116 -80 -196 51 -108 234 -97 269 16 37 119 -65 217 -189 180z m115 -66 c18 -19 24 -37 24 -70 0 -53 -25 -82 -78 -91 -31 -5 -40 -1 -67 25 -62 62 -26 162 58 162 28 0 45 -7 63 -26z" fill="#005f9d"/>
<path d="M23877 6985 c-48 -17 -67 -33 -84 -72 -27 -65 -5 -140 51 -174 61 -37 191 -16 157 25 -10 12 -18 13 -33 5 -30 -16 -84 -2 -108 28 -59 76 14 178 104 144 26 -9 33 -9 44 6 10 15 9 19 -10 29 -39 19 -82 23 -121 9z" fill="#005f9d"/>
<path d="M24314 6975 c-126 -75 -77 -257 70 -257 24 0 56 6 70 14 23 12 25 16 14 31 -11 14 -19 15 -49 7 -40 -11 -76 -2 -98 24 -15 18 -24 13 117 61 45 16 82 33 82 39 0 26 -43 78 -75 92 -49 20 -84 17 -131 -11z m133 -51 c13 -20 10 -22 -67 -52 l-80 -30 0 28 c0 15 10 39 21 54 18 23 27 27 66 24 33 -2 50 -9 60 -24z" fill="#005f9d"/>
<path d="M8026 6966 c-94 -57 -99 -181 -10 -237 40 -24 109 -28 148 -7 23 12 25 16 13 31 -11 15 -17 16 -42 7 -35 -13 -77 -5 -100 20 -20 22 -32 16 113 65 45 16 82 33 82 39 0 23 -40 76 -69 91 -43 22 -90 19 -135 -9z m130 -52 c13 -20 11 -22 -66 -51 l-80 -31 0 25 c0 27 17 64 34 76 6 4 31 6 55 5 31 -2 48 -9 57 -24z" fill="#005f9d"/>
<path d="M8374 6976 c-98 -44 -112 -184 -24 -242 96 -63 228 -5 232 102 3 52 -16 96 -53 123 -37 28 -113 36 -155 17z m127 -62 c36 -38 34 -107 -4 -140 -39 -33 -81 -31 -118 5 -62 62 -25 161 59 161 28 0 45 -7 63 -26z" fill="#005f9d"/>
<path d="M8795 6980 c-11 -4 -31 -20 -45 -35 l-25 -27 -5 29 c-4 22 -11 28 -30 28 l-25 0 0 -130 0 -130 26 -3 27 -3 3 84 c4 95 19 121 73 135 24 6 32 15 34 35 4 29 -1 31 -33 17z" fill="#005f9d"/>
<path d="M8964 6976 c-40 -18 -75 -67 -81 -115 -16 -118 128 -200 218 -124 l32 27 -5 -49 c-4 -34 -13 -55 -28 -67 -28 -22 -91 -23 -131 -2 -24 12 -34 13 -45 3 -21 -17 -18 -23 27 -48 50 -29 134 -26 177 6 52 38 62 74 62 231 l0 142 -30 0 c-23 0 -30 -4 -30 -20 0 -18 -2 -18 -36 5 -41 28 -83 31 -130 11z m148 -66 c26 -33 24 -92 -6 -127 -20 -23 -32 -28 -71 -28 -39 0 -51 5 -71 28 -28 32 -31 75 -9 117 19 36 29 40 89 36 37 -3 55 -9 68 -26z" fill="#005f9d"/>
<path d="M9510 6972 c-95 -47 -107 -175 -24 -241 36 -28 105 -28 150 0 l34 21 0 -21 c0 -17 6 -21 30 -21 l30 0 0 135 0 135 -26 0 c-17 0 -28 -6 -31 -19 -5 -18 -7 -18 -40 5 -42 28 -75 30 -123 6z m134 -53 c21 -16 26 -29 26 -64 0 -57 -7 -73 -41 -90 -44 -23 -77 -18 -111 15 -28 28 -30 36 -25 78 3 31 12 52 27 64 30 25 91 23 124 -3z" fill="#005f9d"/>
<path d="M9970 6983 c-8 -3 -27 -17 -42 -31 l-28 -26 0 27 c0 23 -4 27 -30 27 l-31 0 3 -132 3 -133 26 -3 27 -3 3 91 c4 86 6 93 32 116 32 28 69 31 91 8 12 -12 16 -38 16 -115 l0 -99 31 0 31 0 -4 116 c-3 112 -4 117 -31 140 -27 23 -63 29 -97 17z" fill="#005f9d"/>
<path d="M10716 6975 c-16 -8 -35 -23 -42 -33 -12 -15 -13 -14 -14 11 0 25 -3 28 -27 25 l-28 -3 -3 -132 -3 -133 30 0 29 0 4 91 c3 85 5 92 31 115 35 29 82 32 97 5 5 -11 10 -63 10 -116 l0 -96 28 3 27 3 0 112 c0 100 -2 115 -21 133 -27 28 -82 35 -118 15z" fill="#005f9d"/>
<path d="M11254 6965 c-126 -75 -77 -257 70 -257 24 0 56 6 70 14 23 12 25 16 13 31 -11 15 -17 16 -42 7 -35 -13 -77 -5 -100 20 -18 20 -21 18 143 75 28 11 52 24 52 29 0 26 -43 78 -75 92 -49 20 -84 17 -131 -11z m131 -45 c10 -11 15 -23 12 -27 -8 -7 -136 -53 -149 -53 -16 0 -8 48 13 74 27 34 96 37 124 6z" fill="#005f9d"/>
<path d="M11675 6980 c-11 -4 -31 -20 -45 -35 l-25 -27 -5 29 c-4 22 -11 28 -30 28 l-25 0 0 -130 0 -130 26 -3 27 -3 3 84 c4 95 19 121 73 135 24 6 32 15 34 35 4 29 -1 31 -33 17z" fill="#005f9d"/>
<path d="M11895 6974 c-16 -8 -34 -23 -39 -32 -9 -15 -11 -14 -16 8 -4 18 -13 25 -30 25 l-25 0 0 -130 0 -130 26 -3 27 -3 3 91 c4 86 6 93 32 116 35 29 82 32 97 5 5 -11 10 -63 10 -116 l0 -96 28 3 27 3 0 113 c0 112 0 114 -28 138 -32 28 -69 30 -112 8z" fill="#005f9d"/>
<path d="M12204 6976 c-92 -40 -111 -175 -33 -240 40 -34 116 -36 160 -5 l29 20 0 -20 c0 -17 6 -21 30 -21 l30 0 0 135 0 135 -26 0 c-17 0 -28 -6 -31 -19 -5 -18 -7 -18 -40 5 -40 27 -73 30 -119 10z m130 -57 c22 -17 26 -28 26 -70 0 -76 -55 -116 -121 -89 -40 17 -59 46 -59 93 0 77 90 116 154 66z" fill="#005f9d"/>
<path d="M12992 6973 c-69 -34 -99 -119 -67 -186 62 -132 275 -89 277 55 2 112 -109 181 -210 131z m126 -56 c30 -32 37 -78 18 -115 -31 -60 -90 -69 -137 -23 -39 39 -41 100 -4 136 33 34 93 34 123 2z" fill="#005f9d"/>
<path d="M13405 6980 c-11 -4 -30 -18 -42 -29 l-23 -22 0 26 c0 21 -5 25 -30 25 l-31 0 3 -132 3 -133 26 -3 27 -3 3 91 c4 86 6 93 32 116 32 28 69 31 91 8 12 -12 16 -38 16 -115 l0 -99 31 0 31 0 -4 116 c-3 113 -4 116 -31 140 -28 24 -66 30 -102 14z" fill="#005f9d"/>
<path d="M13689 6967 c-39 -26 -69 -79 -69 -122 0 -39 28 -94 61 -117 35 -27 99 -26 143 2 l36 22 0 -21 c0 -17 6 -21 30 -21 l30 0 0 135 0 135 -26 0 c-17 0 -28 -6 -31 -19 -5 -18 -7 -18 -40 5 -45 30 -90 31 -134 1z m145 -48 c22 -17 26 -28 26 -69 0 -69 -43 -107 -106 -96 -70 14 -100 111 -49 161 31 32 91 34 129 4z" fill="#005f9d"/>
<path d="M19350 6855 l0 -135 30 0 30 0 0 135 0 135 -30 0 -30 0 0 -135z" fill="#005f9d"/>
<path d="M19552 6970 c-35 -21 -62 -72 -62 -115 0 -43 27 -94 62 -115 62 -38 194 -18 159 24 -10 11 -18 13 -31 6 -34 -18 -71 -11 -101 19 -76 76 10 200 103 150 18 -9 24 -8 35 7 12 16 10 20 -9 31 -36 20 -118 16 -156 -7z" fill="#005f9d"/>
<path d="M21182 6875 c3 -100 6 -117 24 -135 33 -34 83 -36 127 -6 46 31 47 31 47 6 0 -15 7 -20 25 -20 l25 0 0 136 0 135 -27 -3 c-28 -3 -28 -3 -33 -96 -4 -83 -8 -96 -29 -113 -29 -24 -63 -24 -84 -1 -13 15 -17 39 -17 115 l0 97 -31 0 -31 0 4 -115z" fill="#005f9d"/>
<path d="M24104 6977 c-2 -7 -3 -67 -2 -133 l3 -119 28 -3 27 -3 0 135 0 136 -25 0 c-14 0 -28 -6 -31 -13z" fill="#005f9d"/>
<path d="M24810 6986 c0 -2 27 -60 60 -130 l59 -126 -20 -47 c-42 -96 -41 -93 -13 -93 28 0 22 -10 127 230 73 168 74 170 45 170 -19 0 -29 -14 -62 -90 -21 -50 -42 -93 -46 -95 -4 -3 -27 38 -50 90 -40 88 -45 95 -71 95 -16 0 -29 -2 -29 -4z" fill="#005f9d"/>
<path d="M9294 6967 c-2 -7 -3 -67 -2 -133 l3 -119 28 -3 27 -3 0 135 0 136 -25 0 c-14 0 -28 -6 -31 -13z" fill="#005f9d"/>
<path d="M12764 6967 c-2 -7 -3 -67 -2 -133 l3 -119 28 -3 27 -3 0 135 0 136 -25 0 c-14 0 -28 -6 -31 -13z" fill="#005f9d"/>
</g>
</svg>